<svg width="88" height="88" viewBox="0 0 88 88" fill="none" xmlns="http://www.w3.org/2000/svg">
<path d="M44 0C19.7018 0 0 19.7018 0 44C0 68.2982 19.7018 88 44 88C68.2982 88 88 68.2982 88 44C88 19.7018 68.2982 0 44 0ZM58.1527 44.6777L36.7027 60.2839C36.5851 60.3684 36.4465 60.4189 36.3021 60.4297C36.1577 60.4406 36.0131 60.4114 35.8842 60.3454C35.7553 60.2795 35.647 60.1792 35.5714 60.0558C35.4957 59.9323 35.4556 59.7903 35.4554 59.6455V28.4527C35.4549 28.3076 35.4946 28.1652 35.5701 28.0413C35.6456 27.9174 35.7539 27.8168 35.8831 27.7507C36.0123 27.6846 36.1572 27.6555 36.3019 27.6667C36.4465 27.678 36.5853 27.729 36.7027 27.8143L58.1527 43.4107C58.254 43.4824 58.3367 43.5773 58.3937 43.6875C58.4508 43.7978 58.4806 43.9201 58.4806 44.0442C58.4806 44.1683 58.4508 44.2906 58.3937 44.4008C58.3367 44.5111 58.254 44.606 58.1527 44.6777Z" fill="#FEFEFE"/>
</svg>
