<svg width="47" height="47" viewBox="0 0 47 47" fill="none" xmlns="http://www.w3.org/2000/svg">
<path d="M23.5 0.5C10.7987 0.5 0.5 10.7987 0.5 23.5C0.5 36.2013 10.7987 46.5 23.5 46.5C36.2013 46.5 46.5 36.2013 46.5 23.5C46.5 10.7987 36.2013 0.5 23.5 0.5ZM34.5533 17.8373C34.5688 18.0786 34.5687 18.3301 34.5687 18.5766C34.5687 26.1132 28.829 34.7946 18.3404 34.7946C15.106 34.7946 12.1078 33.8551 9.58192 32.2379C10.044 32.2893 10.4855 32.3098 10.9578 32.3098C13.6275 32.3098 16.0815 31.4063 18.0375 29.8763C15.5321 29.825 13.4272 28.1821 12.7085 25.9232C13.5864 26.0516 14.377 26.0516 15.2806 25.8205C13.9906 25.5585 12.8311 24.8578 11.9991 23.8377C11.1671 22.8176 10.7139 21.5409 10.7165 20.2246V20.1527C11.4712 20.5788 12.3594 20.8406 13.2886 20.8766C12.5075 20.356 11.8668 19.6506 11.4235 18.8231C10.9802 17.9957 10.748 17.0716 10.7473 16.1328C10.7473 15.0701 11.0246 14.0998 11.5225 13.2578C12.9544 15.0205 14.7412 16.4621 16.7667 17.489C18.7922 18.5159 21.0111 19.1051 23.2792 19.2183C22.4732 15.3422 25.3688 12.2054 28.8496 12.2054C30.4924 12.2054 31.971 12.8933 33.0132 14.0022C34.3018 13.7609 35.5339 13.2783 36.6326 12.6315C36.2065 13.9509 35.3132 15.065 34.1272 15.7683C35.2772 15.6451 36.3862 15.3268 37.4129 14.8801C36.6377 16.0199 35.6674 17.0313 34.5533 17.8373V17.8373Z" fill="#FEFEFE"/>
</svg>
